<svg width="45" height="41" viewBox="0 0 45 41" fill="none" xmlns="http://www.w3.org/2000/svg">
<path d="M19.4687 7.32954C15.9408 9.54545 14.8731 12.9119 16.6371 16.1506C17.9368 18.4091 19.9793 19.6023 22.7182 19.6023C26.8496 19.6023 30.0062 16.321 29.542 12.4432C29.1706 9.20454 25.9676 6.39204 22.7182 6.39204C21.6969 6.39204 20.3507 6.77556 19.4687 7.32954ZM25.2713 9.92897C26.0604 10.5256 26.5711 11.4631 26.7568 12.6136C26.9424 14.0199 26.8032 14.5312 25.7355 15.6818C24.7607 16.7898 24.1572 17.0454 22.7182 17.0454C21.2791 17.0454 20.6757 16.7898 19.7008 15.6818C18.6332 14.5312 18.4939 14.0199 18.6796 12.6136C19.0045 10.5256 20.7221 8.94885 22.7182 8.94885C23.4609 8.94885 24.6214 9.37499 25.2713 9.92897Z" fill="#00682D"/>
<path d="M18.8652 22.1591C15.1516 23.0113 11.9486 25.0568 10.3703 27.5284C9.02408 29.6591 8.93124 31.2358 10.1846 32.3863C11.0202 33.1534 11.7165 33.2386 18.0761 33.2386H25.0392V31.9602V30.6818H18.5403C11.2523 30.6818 11.113 30.5966 13.434 28.0398C15.9407 25.2699 20.9077 23.821 24.9928 24.6733C26.6639 25.0142 27.2209 24.9716 28.1029 24.375C28.7064 23.9915 29.217 23.5227 29.217 23.3523C29.2634 22.3721 21.8362 21.4773 18.8652 22.1591Z" fill="#00682D"/>
<path d="M30.5168 25.1846C28.5207 26.1221 26.896 28.6364 26.896 30.6818C26.896 33.9204 30.3311 37.0739 33.8591 37.0739C37.387 37.0739 40.8222 33.9204 40.8222 30.6818C40.8222 28.5511 39.1975 26.1221 37.1085 25.142C34.8339 24.0767 32.745 24.0767 30.5168 25.1846ZM34.4161 28.4233C34.5554 29.9574 34.6482 30.0426 36.3194 30.1704C38.9653 30.3835 38.2226 31.5341 35.4374 31.5341C34.4626 31.5341 34.3233 31.7471 34.3233 33.0256C34.3233 33.8352 34.1376 34.517 33.8591 34.517C33.627 34.517 33.3949 33.8352 33.3949 33.0256C33.3949 31.7471 33.2556 31.5341 32.2808 31.5341C29.4955 31.5341 28.7528 30.3835 31.4452 30.1704C33.0699 30.0426 33.1628 29.9574 33.302 28.4233C33.3949 27.571 33.627 26.8466 33.8591 26.8466C34.0912 26.8466 34.3233 27.571 34.4161 28.4233Z" fill="#00682D"/>
</svg>
