<svg width="102" height="110" viewBox="0 0 102 110" fill="none" xmlns="http://www.w3.org/2000/svg">
<path d="M51 17.1875C31.6359 17.1875 15.9375 34.1172 15.9375 55C15.9375 61.9867 17.7022 68.5261 20.7686 74.1412L16.2799 92.2687L33.9108 88.0154C38.9677 91.0662 44.7939 92.8125 51 92.8125C70.3641 92.8125 86.0625 75.8828 86.0625 55C86.0625 34.1172 70.3641 17.1875 51 17.1875ZM51 24.0625C66.8435 24.0625 79.6875 37.9139 79.6875 55C79.6875 72.0861 66.8435 85.9375 51 85.9375C45.0537 85.9375 39.5309 83.9865 34.9504 80.647L25.1669 83.0069L27.6572 72.9428C24.3055 67.8794 22.3125 61.6962 22.3125 55C22.3125 37.9139 35.1565 24.0625 51 24.0625ZM39.0033 37.3593C38.4184 37.3593 37.4781 37.5924 36.678 38.5309C35.8923 39.471 33.6493 41.7293 33.6493 46.3458C33.6493 50.9452 36.7472 55.4069 37.1823 56.0205C37.6174 56.6513 43.1915 66.4112 52.0272 70.1633C59.3521 73.2742 60.8487 72.6579 62.452 72.4963C64.0425 72.3485 67.5883 70.2396 68.3102 68.0551C69.0306 65.8689 69.0299 63.9941 68.8052 63.6005C68.5868 63.2189 68.0162 62.982 67.1461 62.5128C66.2759 62.0419 62.0069 59.7741 61.2068 59.4647C60.4179 59.1553 59.8334 58.9929 59.2645 59.9313C58.6796 60.8698 57.0214 62.9818 56.5034 63.5971C56.0014 64.2279 55.4997 64.3013 54.6295 63.8321C53.7593 63.3629 50.961 62.3779 47.6444 59.1827C45.0641 56.706 43.3216 53.6389 42.8196 52.7039C42.316 51.7671 42.7642 51.2563 43.1993 50.787C43.5946 50.378 44.0716 49.7003 44.5067 49.1589C44.9275 48.6021 45.0759 48.222 45.3627 47.5912C45.664 46.9777 45.511 46.4189 45.2943 45.9497C45.0791 45.4788 43.3918 40.8468 42.6172 39.0009C41.967 37.4471 41.2872 37.4016 40.6624 37.3862C40.1572 37.3587 39.5723 37.3593 39.0033 37.3593Z" fill="black"/>
</svg>
